<?xml version="1.0" standalone="no"?>
<!DOCTYPE svg PUBLIC "-//W3C//DTD SVG 20010904//EN"
 "http://www.w3.org/TR/2001/REC-SVG-20010904/DTD/svg10.dtd">
<svg version="1.0" xmlns="http://www.w3.org/2000/svg"
 width="260.000000pt" height="260.000000pt" viewBox="0 0 260.000000 260.000000"
 preserveAspectRatio="xMidYMid meet">
<metadata>
Created by potrace 1.14, written by Peter Selinger 2001-2017
</metadata>
<g transform="translate(0.000000,260.000000) scale(0.100000,-0.100000)"
fill="#000000" stroke="none">
<path d="M1101 2584 c-273 -43 -545 -185 -735 -385 -200 -210 -321 -463 -355
-744 -38 -311 41 -632 219 -889 57 -83 72 -90 177 -89 63 0 99 21 121 71 15
33 17 107 20 715 l3 677 169 0 170 0 0 -623 c0 -643 -5 -746 -41 -841 -48
-129 -117 -192 -264 -241 -48 -16 213 -146 379 -189 180 -47 347 -57 525 -30
364 54 688 261 896 573 217 326 272 735 149 1111 -91 280 -274 519 -523 685
-265 176 -592 248 -910 199z m816 -653 c91 -23 173 -56 173 -69 0 -8 -90 -234
-95 -241 -2 -2 -42 13 -87 33 -115 49 -203 57 -276 26 -100 -43 -152 -135
-173 -302 -18 -148 5 -307 57 -396 74 -126 243 -153 449 -73 l75 29 0 -134 0
-134 -37 -15 c-80 -34 -168 -48 -298 -49 -209 -2 -320 38 -427 152 -68 73
-107 148 -139 267 -32 116 -32 375 -1 488 67 245 223 396 450 437 74 14 238 4
329 -19z"/>
</g>
</svg>
